<?xml version="1.0" encoding="utf-8" standalone="yes"?>
<!DOCTYPE svg PUBLIC "-//W3C//DTD SVG 1.1//EN" "http://www.w3.org/Graphics/SVG/1.1/DTD/svg11.dtd">
<svg width="840" height="1066" viewBox="0 0 840 1066" style="fill:none;stroke:none;fill-rule:evenodd;clip-rule:evenodd;stroke-linecap:round;stroke-linejoin:round;stroke-miterlimit:1.5;" version="1.1" xmlns="http://www.w3.org/2000/svg" xmlns:xlink="http://www.w3.org/1999/xlink"><style class="text-font-style fontImports" data-font-family="Roboto">@import url('https://fonts.googleapis.com/css2?family=Roboto:wght@400;700&amp;display=block');</style><g id="items" style="isolation: isolate"><g id="blend" style="mix-blend-mode: normal"><g id="g-root-cp_4_g-4_18ntebwu0qeq5-fill" data-item-order="-779320" transform="translate(26, 110)"><g id="cp_4_g-4_18ntebwu0qeq5-fill" stroke="none" fill="#f4ffdc"><g><path d="M 754 465.999969C 754 717.841553 587.450256 921.999939 382 921.999939C 176.549713 921.999939 10 717.841553 10 465.999969C 10 214.158417 176.549713 10 382 10C 587.450256 10 754 214.158417 754 465.999969Z"></path></g></g></g><g id="g-root-cp_3_g-3_147zw7gu0qfif-fill" data-item-order="-779308" transform="translate(50, 290.5)"><g id="cp_3_g-3_147zw7gu0qfif-fill" stroke="none" fill="#e3fff2"><g><path d="M 603.806274 183.623474C 735.865173 342.912384 684.783325 526.022583 568.143127 645.674561C 451.503998 765.325378 249.894165 733.192444 117.836349 573.903564C -14.222458 414.613373 -26.721752 188.48851 89.917992 68.836884C 206.558029 -50.814251 471.748474 24.33454 603.806274 183.623474Z"></path></g></g></g><g id="g-root-cp_2_g-2_zs6e30u0qgap-fill" data-item-order="-779296" transform="translate(157.99996948242188, 458.5)"><g id="cp_2_g-2_zs6e30u0qgap-fill" stroke="none" fill="#e8f9ff"><g><path d="M 452.94751 188.382401C 493.720551 320.899628 435.782227 460.685242 323.538025 500.60083C 211.293824 540.517639 61.236893 490.726044 20.46377 358.208832C -20.309354 225.691605 63.640931 60.631485 175.885621 20.71504C 288.129822 -19.201401 412.1745 55.866039 452.94751 188.382401Z"></path></g></g></g><g id="g-root-cp_1_g-1_qn69jgu0rsi3-fill" data-item-order="-779284" transform="translate(254, 674.5)"><g id="cp_1_g-1_qn69jgu0rsi3-fill" stroke="none" fill="#edf4ff"><g><path d="M 261.681351 138.386002C 256.90155 62.149101 196.753906 4.8343 127.337044 10.3694C 57.920998 15.9046 5.522799 82.193604 10.302674 158.429993C 15.082548 234.667007 78.110397 266.929993 147.52626 261.393997C 216.94313 255.858994 266.461121 214.621994 261.681351 138.386002Z"></path></g></g></g><g id="g-root-tx_hierarqu_dbpr64u0ru31-fill" data-item-order="0" transform="translate(116, 38)"><g id="tx_hierarqu_dbpr64u0ru31-fill" stroke="none" fill="#484848"><g><text style="font: 30px Roboto, sans-serif; white-space: pre;" font-size="30px" font-family="Roboto, sans-serif"><tspan x="16.54" y="46" dominant-baseline="ideographic">Hierarquia de Gestão de Riscos de Seguros</tspan></text></g></g></g><g id="g-root-tx_retroces_vpvwu0rsi6-fill" data-item-order="0" transform="translate(314, 158)"><g id="tx_retroces_vpvwu0rsi6-fill" stroke="none" fill="#92bd39"><g><text style="font: bold 30px Roboto, sans-serif; white-space: pre;" font-weight="bold" font-size="30px" font-family="Roboto, sans-serif"><tspan x="15.66" y="46" dominant-baseline="ideographic">Retrocessão</tspan></text></g></g></g><g id="g-root-tx_seguropa_1lqj9hou0rtvz-fill" data-item-order="0" transform="translate(314, 206)"><g id="tx_seguropa_1lqj9hou0rtvz-fill" stroke="none" fill="#92bd39"><g><text style="font: 25px Roboto, sans-serif; white-space: pre;" font-size="25px" font-family="Roboto, sans-serif"><tspan x="33.08" y="40" dominant-baseline="ideographic">Seguro para </tspan><tspan x="13.59" y="70" dominant-baseline="ideographic">resseguradoras</tspan></text></g></g></g><g id="g-root-tx_ressegur_1cviqbwu0rsao-fill" data-item-order="0" transform="translate(194, 326)"><g id="tx_ressegur_1cviqbwu0rsao-fill" stroke="none" fill="#3cc583"><g><text style="font: bold 30px Roboto, sans-serif; white-space: pre;" font-weight="bold" font-size="30px" font-family="Roboto, sans-serif"><tspan x="16.07" y="46" dominant-baseline="ideographic">Resseguro</tspan></text></g></g></g><g id="g-root-tx_seguropa_13zvq30u0rt3d-fill" data-item-order="0" transform="translate(194, 374)"><g id="tx_seguropa_13zvq30u0rt3d-fill" stroke="none" fill="#3cc583"><g><text style="font: 25px Roboto, sans-serif; white-space: pre;" font-size="25px" font-family="Roboto, sans-serif"><tspan x="19.13" y="40" dominant-baseline="ideographic">Seguro para </tspan><tspan x="16.83" y="70" dominant-baseline="ideographic">seguradoras</tspan></text></g></g></g><g id="g-root-tx_cossegur_zk27yku0rtvm-fill" data-item-order="0" transform="translate(302, 506)"><g id="tx_cossegur_zk27yku0rtvm-fill" stroke="none" fill="#1eabda"><g><text style="font: bold 30px Roboto, sans-serif; white-space: pre;" font-weight="bold" font-size="30px" font-family="Roboto, sans-serif"><tspan x="15.5" y="46" dominant-baseline="ideographic">Cosseguro</tspan></text></g></g></g><g id="g-root-tx_comparti_m986ocu0rsar-fill" data-item-order="0" transform="translate(302, 554)"><g id="tx_comparti_m986ocu0rsar-fill" stroke="none" fill="#1eabda"><g><text style="font: 25px Roboto, sans-serif; white-space: pre;" font-size="25px" font-family="Roboto, sans-serif"><tspan x="12.23" y="43" dominant-baseline="ideographic">Compartilhamento </tspan><tspan x="34.16" y="73" dominant-baseline="ideographic">de riscos entre </tspan><tspan x="47.06" y="103" dominant-baseline="ideographic">seguradoras</tspan></text></g></g></g><g id="g-root-tx_seguro_ddl6fgu0rt3g-fill" data-item-order="0" transform="translate(326, 716)"><g id="tx_seguro_ddl6fgu0rt3g-fill" stroke="none" fill="#4e88e7"><g><text style="font: bold 30px Roboto, sans-serif; white-space: pre;" font-weight="bold" font-size="30px" font-family="Roboto, sans-serif"><tspan x="15.96" y="46" dominant-baseline="ideographic">Seguro</tspan></text></g></g></g><g id="g-root-tx_mecanism_8xrob0u0rtvp-fill" data-item-order="0" transform="translate(302, 764)"><g id="tx_mecanism_8xrob0u0rtvp-fill" stroke="none" fill="#4e88e7"><g><text style="font: 25px Roboto, sans-serif; white-space: pre;" font-size="25px" font-family="Roboto, sans-serif"><tspan x="19.53" y="40" dominant-baseline="ideographic">Mecanismo </tspan><tspan x="31.14" y="70" dominant-baseline="ideographic">básico de </tspan><tspan x="11.8" y="100" dominant-baseline="ideographic">transferência </tspan><tspan x="34.27" y="130" dominant-baseline="ideographic">de riscos</tspan></text></g></g></g><g id="g-root-cp_4_g-4_18ntebwu0qeq5-stroke" data-item-order="-779320" transform="translate(26, 110)"><g id="cp_4_g-4_18ntebwu0qeq5-stroke" fill="none" stroke-linecap="round" stroke-linejoin="round" stroke-miterlimit="4" stroke="#92bd39" stroke-width="2"><g><path d="M 754 465.999969C 754 717.841858 587.44989 921.999939 382 921.999939C 176.55011 921.999939 10 717.841858 10 465.999969C 10 214.158173 176.55011 10 382 10C 587.44989 10 754 214.158173 754 465.999969Z"></path></g></g></g><g id="g-root-cp_3_g-3_147zw7gu0qfif-stroke" data-item-order="-779308" transform="translate(50, 290.5)"><g id="cp_3_g-3_147zw7gu0qfif-stroke" fill="none" stroke-linecap="round" stroke-linejoin="round" stroke-miterlimit="4" stroke="#3cc583" stroke-width="2"><g><path d="M 603.806702 183.623718C 735.865173 342.912872 684.783447 526.022949 568.143616 645.674133C 451.503906 765.325073 249.894272 733.192078 117.835861 573.902893C -14.222458 414.61377 -26.721752 188.488022 89.917992 68.836884C 206.557739 -50.814251 471.748383 24.33454 603.806702 183.623718Z"></path></g></g></g><g id="g-root-cp_2_g-2_zs6e30u0qgap-stroke" data-item-order="-779296" transform="translate(157.99996948242188, 458.5)"><g id="cp_2_g-2_zs6e30u0qgap-stroke" fill="none" stroke-linecap="round" stroke-linejoin="round" stroke-miterlimit="4" stroke="#1eabda" stroke-width="2"><g><path d="M 452.947693 188.382996C 493.720826 320.899994 435.781952 460.684875 323.537751 500.601318C 211.293442 540.517761 61.236893 490.725403 20.46377 358.208557C -20.309354 225.691605 63.640931 60.631485 175.885132 20.71504C 288.129456 -19.201401 412.174592 55.866039 452.947693 188.382996Z"></path></g></g></g><g id="g-root-cp_1_g-1_qn69jgu0rsi3-stroke" data-item-order="-779284" transform="translate(254, 674.5)"><g id="cp_1_g-1_qn69jgu0rsi3-stroke" fill="none" stroke-linecap="round" stroke-linejoin="round" stroke-miterlimit="4" stroke="#4e88e7" stroke-width="2"><g><path d="M 261.681442 138.385498C 256.90155 62.149101 196.753647 4.8343 127.337318 10.3694C 57.920998 15.9046 5.522799 82.193604 10.302674 158.430099C 15.082548 234.666595 78.110397 266.929596 147.526718 261.394501C 216.943039 255.859299 266.461304 214.621994 261.681442 138.385498Z"></path></g></g></g><g id="g-root-tx_hierarqu_dbpr64u0ru31-stroke" data-item-order="0" transform="translate(116, 38)"></g><g id="g-root-tx_retroces_vpvwu0rsi6-stroke" data-item-order="0" transform="translate(314, 158)"></g><g id="g-root-tx_seguropa_1lqj9hou0rtvz-stroke" data-item-order="0" transform="translate(314, 206)"></g><g id="g-root-tx_ressegur_1cviqbwu0rsao-stroke" data-item-order="0" transform="translate(194, 326)"></g><g id="g-root-tx_seguropa_13zvq30u0rt3d-stroke" data-item-order="0" transform="translate(194, 374)"></g><g id="g-root-tx_cossegur_zk27yku0rtvm-stroke" data-item-order="0" transform="translate(302, 506)"></g><g id="g-root-tx_comparti_m986ocu0rsar-stroke" data-item-order="0" transform="translate(302, 554)"></g><g id="g-root-tx_seguro_ddl6fgu0rt3g-stroke" data-item-order="0" transform="translate(326, 716)"></g><g id="g-root-tx_mecanism_8xrob0u0rtvp-stroke" data-item-order="0" transform="translate(302, 764)"></g></g></g><path id="wm8lyz2smy13j" d="M65.283 12.757a.35.35 0 0 0 .584.157l5.203-5.141-6.183 3.523.396 1.461zm-2.216-11.7a.35.35 0 0 0-.522.305v3.111l3.276-1.868-2.754-1.548zm3.728 2.105l-4.25 2.421v2.445l6.391-3.644-2.141-1.222zm4.708 3.303a.35.35 0 0 0 0-.609l-1.592-.9-7.365 4.199v1.782a.35.35 0 0 0 .523.305l8.435-4.777z M44.542 2.513c0-.433.355-.783.792-.783s.792.35.792.783-.355.783-.792.783-.792-.35-.792-.783zm59.171 0c0-.433.355-.783.792-.783s.792.35.792.783-.355.783-.792.783-.792-.35-.792-.783zm-85.951 7.636h-1.27v-.487c-.276.201-.864.609-1.881.609-1.202 0-2.274-.794-2.137-2.078.118-1.106 1.153-1.584 1.848-1.727l2.17-.345c0-.539-.29-.956-1.064-1.006s-1.21.305-1.571 1.017l-1.124-.605c1.218-2.631 5.029-1.764 5.029.414v4.207zm-1.27-2.86c.006.396-.062 1.112-.819 1.59-.587.37-1.841.299-1.903-.395-.049-.555.461-.791.906-.898l1.816-.297zm72.662 2.86h-1.27v-.487c-.276.201-.864.609-1.881.609-1.202 0-2.274-.794-2.137-2.078.118-1.106 1.153-1.584 1.848-1.727l2.17-.345c0-.539-.29-.956-1.064-1.006s-1.21.305-1.571 1.017l-1.124-.605c1.218-2.631 5.029-1.764 5.029.414v4.207zm-1.27-2.86c.006.396-.062 1.112-.82 1.59-.587.37-1.841.299-1.903-.395-.049-.555.461-.791.906-.898l1.816-.297zM99.096 10.149H97.85v-8.45h1.246v4.895l2.68-2.559h1.738l-2.633 2.535 2.715 3.578h-1.556l-2.077-2.707-.867.844v1.863zm6.053-6.114h-1.255v6.113h1.255V4.035zm-59.2 0h-1.255v6.113h1.255V4.035zm5.584 6.113V1.697h1.255v2.695c.361-.346 1-.485 1.47-.485 1.452 0 2.477 1.082 2.457 2.448v3.792h-1.27v-3.68c0-.408-.214-1.339-1.315-1.339-.968 0-1.342.756-1.342 1.339v3.681h-1.255zm-4.76-4.894V4.039h.621a.45.45 0 0 0 .45-.45v-.855h1.251v1.305h1.309v1.215h-1.309v3.109c0 .293.105.664.648.664.365 0 .531-.035.736-.07v1.137s-.361.113-.857.113c-1.398 0-1.777-1.051-1.777-1.788V5.254h-1.071zM36.528 4.039h-1.394l2.191 6.106h1.125l1.234-3.918 1.238 3.918h1.129l2.188-6.106h-1.383l-1.359 3.93-1.256-3.93h-1.124l-1.242 3.957-1.348-3.957zM26.212 7.141c-.02 1.566 1.187 3.129 3.223 3.129 1.566 0 2.383-.918 2.734-1.719L31.172 8c-.315.399-.801 1.094-1.738 1.094-1.145 0-1.825-.781-1.891-1.52h4.625c.074-.284.148-.995-.03-1.559-.336-1.064-1.221-2.102-2.839-2.102s-3.088 1.152-3.088 3.227zm1.363-.75h3.348c-.055-.43-.566-1.301-1.623-1.301a1.79 1.79 0 0 0-1.725 1.301zm-8.758.75c.038 1.758 1.277 3.133 3.145 3.133 1.074 0 1.723-.477 1.961-.672v.547h1.242V1.703h-1.258v2.888c-.414-.36-1.062-.68-1.93-.68-1.91 0-3.198 1.473-3.16 3.23zm1.309-.08c0 1.119.723 1.978 1.836 1.978a1.88 1.88 0 0 0 1.94-1.904c0-1.371-1.011-1.99-1.972-1.99s-1.805.798-1.805 1.916zm76.683-.028C96.771 5.275 95.532 3.9 93.664 3.9c-1.074 0-1.723.477-1.961.672v-.547h-1.242v8.22h1.258V9.583c.414.36 1.063.68 1.93.68 1.91 0 3.198-1.473 3.16-3.23zm-1.309.08c0-1.119-.723-1.978-1.836-1.978a1.88 1.88 0 0 0-1.94 1.904c0 1.371 1.011 1.99 1.972 1.99S95.5 8.231 95.5 7.113zM106.441 10.173V4.036h1.254v.382c.361-.346 1-.485 1.47-.485 1.452 0 2.477 1.082 2.457 2.448v3.792h-1.27V6.492c0-.408-.214-1.339-1.315-1.339-.969 0-1.342.756-1.342 1.339v3.681h-1.254zm-30.383-.021V1.824h1.084l4.215 5.777V1.824h1.32v8.328h-1.094l-4.207-5.796v5.796h-1.319zM5.24 10.149H4V2.377h1.014l2.664 3.597 2.654-3.592h1.03v7.766h-1.256V4.762L7.678 8.068 5.24 4.742v5.407z" transform="translate(714, 1042)" fill="#80808088" stroke="none"></path></svg>