<?xml version="1.0" encoding="utf-8" standalone="yes"?>
<!DOCTYPE svg PUBLIC "-//W3C//DTD SVG 1.1//EN" "http://www.w3.org/Graphics/SVG/1.1/DTD/svg11.dtd">
<svg width="1111" height="792" viewBox="0 0 1111 792" style="fill:none;stroke:none;fill-rule:evenodd;clip-rule:evenodd;stroke-linecap:round;stroke-linejoin:round;stroke-miterlimit:1.5;" version="1.1" xmlns="http://www.w3.org/2000/svg" xmlns:xlink="http://www.w3.org/1999/xlink"><style class="text-font-style fontImports" data-font-family="Shantell Sans">@import url('https://fonts.googleapis.com/css2?family=Shantell+Sans:wght@300..800&amp;display=block');</style><g id="items" style="isolation: isolate"><g id="blend" style="mix-blend-mode: normal"><g id="g-root-cp_1_g-1_de7kb2r9747b-fill" data-item-order="-374387" transform="translate(462.85003662109375, 212.2630615234375)"></g><g id="g-root-cp_2_g-2_2r1xqr975s9-fill" data-item-order="-374383" transform="translate(535.4299926757812, 272.7830810546875)"></g><g id="g-root-cp_3_g-3_1uoo2vir9737n-fill" data-item-order="-374379" transform="translate(551.739990234375, 386.5731201171875)"></g><g id="g-root-cp_4_g-4_1lt12mmr9740d-fill" data-item-order="-374375" transform="translate(503.19000244140625, 448.7730712890625)"></g><g id="g-root-cp_5_g-5_1hd7ki6r974sn-fill" data-item-order="-374371" transform="translate(400.19000244140625, 448.8929443359375)"></g><g id="g-root-cp_6_g-6_1hd7ki6r974sp-fill" data-item-order="-374367" transform="translate(313, 386.8231201171875)"></g><g id="g-root-cp_7_g-7_1cxe2dqr975kz-fill" data-item-order="-374363" transform="translate(343.9800109863281, 272.9830322265625)"></g><g id="g-root-tx_onerosid_18jfzimr98irn-fill" data-item-order="0" transform="translate(614.1578979492188, 220)"><g id="tx_onerosid_18jfzimr98irn-fill" stroke="none" fill="#44e095"><g><text style="font: bold 30px &quot;Shantell Sans&quot;, cursive; white-space: pre;" font-weight="bold" font-size="30px" font-family="'Shantell Sans', cursive"><tspan x="12" y="48" dominant-baseline="ideographic">Onerosidade</tspan></text></g></g></g><g id="g-root-tx_buscapor_mcyxzir98hzg-fill" data-item-order="0" transform="translate(608, 263.2630615234375)"><g id="tx_buscapor_mcyxzir98hzg-fill" stroke="none" fill="#000000"><g><text style="font: 25px &quot;Shantell Sans&quot;, cursive; white-space: pre;" font-size="25px" font-family="'Shantell Sans', cursive"><tspan x="12" y="59.33" dominant-baseline="ideographic">Busca por benefícios financeiros </tspan><tspan x="12" y="89.33" dominant-baseline="ideographic">por ambas as partes</tspan></text></g></g></g><g id="g-root-tx_cobertur_v6qiz2r98i6e-fill" data-item-order="0" transform="translate(-10, 281.2630615234375)"><g id="tx_cobertur_v6qiz2r98i6e-fill" stroke="none" fill="#484848"><g><text style="font: 25px &quot;Shantell Sans&quot;, cursive; white-space: pre;" font-size="25px" font-family="'Shantell Sans', cursive"><tspan x="111.78" y="44.33" dominant-baseline="ideographic">Cobertura contínua </tspan><tspan x="86.56" y="74.33" dominant-baseline="ideographic">durante o período do </tspan><tspan x="240.52" y="104.33" dominant-baseline="ideographic">contrato</tspan></text></g></g></g><g id="g-root-ic_sign_909hfyr97406-fill" data-item-order="0" transform="translate(434, 335.2630615234375)"></g><g id="g-root-tx_boaf_qp1llar98jyb-fill" data-item-order="0" transform="translate(188, 395.2630615234375)"><g id="tx_boaf_qp1llar98jyb-fill" stroke="none" fill="#e55753"><g><text style="font: bold 30px &quot;Shantell Sans&quot;, cursive; white-space: pre;" font-weight="bold" font-size="30px" font-family="'Shantell Sans', cursive"><tspan x="15.75" y="48" dominant-baseline="ideographic">Boa-fé</tspan></text></g></g></g><g id="g-root-tx_execuoco_1cxe2dqr98iz1-fill" data-item-order="0" transform="translate(8.15789794921875, 196)"><g id="tx_execuoco_1cxe2dqr98iz1-fill" stroke="none" fill="#886aff"><g><text style="font: bold 30px &quot;Shantell Sans&quot;, cursive; white-space: pre;" font-weight="bold" font-size="30px" font-family="'Shantell Sans', cursive"><tspan x="187.58" y="48" dominant-baseline="ideographic">Execução </tspan><tspan x="152.36" y="84" dominant-baseline="ideographic">Continuada</tspan></text></g></g></g><g id="g-root-tx_obrigaes_1i3rir98hs8-fill" data-item-order="0" transform="translate(302, 137.2630615234375)"><g id="tx_obrigaes_1i3rir98hs8-fill" stroke="none" fill="#484848"><g><text style="font: 25px &quot;Shantell Sans&quot;, cursive; white-space: pre;" font-size="25px" font-family="'Shantell Sans', cursive"><tspan x="21.84" y="41.33" dominant-baseline="ideographic">Obrigações mútuas entre </tspan><tspan x="34.01" y="71.33" dominant-baseline="ideographic">segurado e seguradora</tspan></text></g></g></g><g id="g-root-tx_aceitaod_18gbm32r98hl6-fill" data-item-order="0" transform="translate(74.15789794921875, 628)"><g id="tx_aceitaod_18gbm32r98hl6-fill" stroke="none" fill="#484848"><g><text style="font: 25px &quot;Shantell Sans&quot;, cursive; white-space: pre;" font-size="25px" font-family="'Shantell Sans', cursive"><tspan x="72.77" y="41.33" dominant-baseline="ideographic">Aceitação de termos pré-</tspan><tspan x="38.5" y="71.33" dominant-baseline="ideographic">estabelecidos pelo segurado</tspan></text></g></g></g><g id="g-root-tx_honestid_4ikk26r98j64-fill" data-item-order="0" transform="translate(8, 437.2630615234375)"><g id="tx_honestid_4ikk26r98j64-fill" stroke="none" fill="#484848"><g><text style="font: 25px &quot;Shantell Sans&quot;, cursive; white-space: pre;" font-size="25px" font-family="'Shantell Sans', cursive"><tspan x="121.11" y="56.33" dominant-baseline="ideographic">Honestidade e </tspan><tspan x="91.19" y="86.33" dominant-baseline="ideographic">transparência de </tspan><tspan x="94.75" y="116.33" dominant-baseline="ideographic">ambas as partes</tspan></text></g></g></g><g id="g-root-tx_bilatera_dcc51qr98jd3-fill" data-item-order="0" transform="translate(344, 59.2630615234375)"><g id="tx_bilatera_dcc51qr98jd3-fill" stroke="none" fill="#1eabda"><g><text style="font: bold 30px &quot;Shantell Sans&quot;, cursive; white-space: pre;" font-weight="bold" font-size="30px" font-family="'Shantell Sans', cursive"><tspan x="24.1" y="66" dominant-baseline="ideographic">Bilateralidade</tspan></text></g></g></g><g id="g-root-tx_caracter_zmk13ir97405-fill" data-item-order="0" transform="translate(188, -0.7369384765625)"><g id="tx_caracter_zmk13ir97405-fill" stroke="none" fill="#484848"><g><text style="font: bold 25px &quot;Shantell Sans&quot;, cursive; white-space: pre;" font-weight="bold" font-size="25px" font-family="'Shantell Sans', cursive"><tspan x="17.42" y="44.33" dominant-baseline="ideographic">Características de um Contrato de Seguro</tspan></text></g></g></g><g id="g-root-tx_dependnc_1lua0sur98kci-fill" data-item-order="0" transform="translate(638, 437.2630615234375)"><g id="tx_dependnc_1lua0sur98kci-fill" stroke="none" fill="#484848"><g><text style="font: 25px &quot;Shantell Sans&quot;, cursive; white-space: pre;" font-size="25px" font-family="'Shantell Sans', cursive"><tspan x="12" y="44.33" dominant-baseline="ideographic">Dependência de </tspan><tspan x="12" y="74.33" dominant-baseline="ideographic">eventos futuros </tspan><tspan x="12" y="104.33" dominant-baseline="ideographic">incertos</tspan></text></g></g></g><g id="g-root-tx_consensu_hva0lqr98jrb-fill" data-item-order="0" transform="translate(554, 509.26318359375)"><g id="tx_consensu_hva0lqr98jrb-fill" stroke="none" fill="#e0cb15"><g><text style="font: bold 30px &quot;Shantell Sans&quot;, cursive; white-space: pre;" font-weight="bold" font-size="30px" font-family="'Shantell Sans', cursive"><tspan x="12" y="66" dominant-baseline="ideographic">Consensualidade</tspan></text></g></g></g><g id="g-root-tx_adeso_1lr5ndar98j61-fill" data-item-order="0" transform="translate(308.15789794921875, 580)"><g id="tx_adeso_1lr5ndar98j61-fill" stroke="none" fill="#f99539"><g><text style="font: bold 30px &quot;Shantell Sans&quot;, cursive; white-space: pre;" font-weight="bold" font-size="30px" font-family="'Shantell Sans', cursive"><tspan x="22.88" y="48" dominant-baseline="ideographic">Adesão</tspan></text></g></g></g><g id="g-root-tx_acordomt_4kfzbir98i6g-fill" data-item-order="0" transform="translate(554, 587.26318359375)"><g id="tx_acordomt_4kfzbir98i6g-fill" stroke="none" fill="#484848"><g><text style="font: 25px &quot;Shantell Sans&quot;, cursive; white-space: pre;" font-size="25px" font-family="'Shantell Sans', cursive"><tspan x="12" y="41.33" dominant-baseline="ideographic">Acordo mútuo e </tspan><tspan x="12" y="71.33" dominant-baseline="ideographic">emissão de apólice</tspan></text></g></g></g><g id="g-root-tx_aleatori_1qa3ixar98jk9-fill" data-item-order="0" transform="translate(638, 395.2630615234375)"><g id="tx_aleatori_1qa3ixar98jk9-fill" stroke="none" fill="#92bd39"><g><text style="font: bold 30px &quot;Shantell Sans&quot;, cursive; white-space: pre;" font-weight="bold" font-size="30px" font-family="'Shantell Sans', cursive"><tspan x="12" y="48" dominant-baseline="ideographic">Aleatoriedade</tspan></text></g></g></g><g id="g-root-cp_1_g-1_de7kb2r9747b-stroke" data-item-order="-374387" transform="translate(462.85003662109375, 212.2630615234375)"><g id="cp_1_g-1_de7kb2r9747b-stroke" fill="none" stroke-linecap="round" stroke-linejoin="round" stroke-miterlimit="4" stroke="#1ac6ff" stroke-width="2"><g><path d="M 16.949951 49.609985L 16.949951 80.169985M 16.949951 19.73999L 16.949951 27.29999M 16.949951 30.73999L 16.949951 44.29999M 16.949951 10L 16.949951 14.55M 10 80.169983L 16.95 87.119983L 23.9 80.169983L 10 80.169983Z"></path></g></g></g><g id="g-root-cp_2_g-2_2r1xqr975s9-stroke" data-item-order="-374383" transform="translate(535.4299926757812, 272.7830810546875)"><g id="cp_2_g-2_2r1xqr975s9-stroke" fill="none" stroke-linecap="round" stroke-linejoin="round" stroke-miterlimit="4" stroke="#44e095" stroke-width="2"><g><path d="M 39.329941 34.690002L 15.439941 53.740002M 62.68002 16.069977L 56.77002 20.779977M 54.07998 22.929993L 43.47998 31.379993M 70.29999 10L 66.73999 12.84M 11.1 48.309998L 10 58.079998L 19.77 59.179998L 11.1 48.309998Z"></path></g></g></g><g id="g-root-cp_3_g-3_1uoo2vir9737n-stroke" data-item-order="-374379" transform="translate(551.739990234375, 386.5731201171875)"><g id="cp_3_g-3_1uoo2vir9737n-stroke" fill="none" stroke-linecap="round" stroke-linejoin="round" stroke-miterlimit="4" stroke="#a8dd38" stroke-width="2"><g><path d="M 46.559897 23.579999L 16.769897 16.779999M 75.689946 30.220009L 68.319946 28.540009M 64.95999 27.78001L 51.73999 24.76001M 85.17999 32.390005L 80.73999 31.380005M 18.32 10L 10 15.23L 15.23 23.55L 18.32 10Z"></path></g></g></g><g id="g-root-cp_4_g-4_1lt12mmr9740d-stroke" data-item-order="-374375" transform="translate(503.19000244140625, 448.7730712890625)"><g id="cp_4_g-4_1lt12mmr9740d-stroke" fill="none" stroke-linecap="round" stroke-linejoin="round" stroke-miterlimit="4" stroke="#ffe60a" stroke-width="2"><g><path d="M 29.52001 43.799989L 16.26001 16.269989M 42.479951 70.720004L 39.199951 63.910004M 37.709956 60.799987L 31.829956 48.579987M 46.70999 79.489984L 44.73999 75.389984M 22.53 13.25L 13.25 10L 10 19.28L 22.52 13.25L 22.53 13.25Z"></path></g></g></g><g id="g-root-cp_5_g-5_1hd7ki6r974sn-stroke" data-item-order="-374371" transform="translate(400.19000244140625, 448.8929443359375)"><g id="cp_5_g-5_1hd7ki6r974sn-stroke" fill="none" stroke-linecap="round" stroke-linejoin="round" stroke-miterlimit="4" stroke="#f99539" stroke-width="2"><g><path d="M 27.189941 43.79001L 40.449941 16.26001M 14.22998 70.709994L 17.50998 63.899994M 19 60.799987L 24.88 48.579987M 10 79.480005L 11.97 75.380005M 46.709932 19.28L 43.459932 10L 34.179932 13.25L 46.699932 19.28L 46.709932 19.28Z"></path></g></g></g><g id="g-root-cp_6_g-6_1hd7ki6r974sp-stroke" data-item-order="-374367" transform="translate(313, 386.8231201171875)"><g id="cp_6_g-6_1hd7ki6r974sp-stroke" fill="none" stroke-linecap="round" stroke-linejoin="round" stroke-miterlimit="4" stroke="#fd6a65" stroke-width="2"><g><path d="M 48.609863 23.579999L 78.399863 16.779999M 19.48999 30.220009L 26.85999 28.540009M 30.209961 27.78001L 43.429961 24.76001M 10 32.390005L 14.44 31.380005M 79.949863 23.55L 85.179863 15.23L 76.859863 10L 79.949863 23.55Z"></path></g></g></g><g id="g-root-cp_7_g-7_1cxe2dqr975kz-stroke" data-item-order="-374363" transform="translate(343.9800109863281, 272.9830322265625)"><g id="cp_7_g-7_1cxe2dqr975kz-stroke" fill="none" stroke-linecap="round" stroke-linejoin="round" stroke-miterlimit="4" stroke="#886aff" stroke-width="2"><g><path d="M 40.959961 34.690002L 64.849961 53.740002M 17.609985 16.069977L 23.519985 20.779977M 26.209961 22.929993L 36.809961 31.379993M 10 10L 13.56 12.84M 60.52002 59.179998L 70.29002 58.079998L 69.19002 48.309998L 60.52002 59.179998Z"></path></g></g></g><g id="g-root-tx_onerosid_18jfzimr98irn-stroke" data-item-order="0" transform="translate(614.1578979492188, 220)"></g><g id="g-root-tx_buscapor_mcyxzir98hzg-stroke" data-item-order="0" transform="translate(608, 263.2630615234375)"></g><g id="g-root-tx_cobertur_v6qiz2r98i6e-stroke" data-item-order="0" transform="translate(-10, 281.2630615234375)"></g><g id="g-root-ic_sign_909hfyr97406-stroke" data-item-order="0" transform="translate(434, 335.2630615234375)"><g id="ic_sign_909hfyr97406-stroke" fill="none" stroke-linecap="round" stroke-linejoin="round" stroke-miterlimit="4" stroke="#484848" stroke-width="2"><g><path d="M 71.5 71.949997L 59.709999 74.32M 61 61L 55.449997 63.279999C 54.56525 63.640175 53.574745 63.640175 52.689999 63.279999C 51.393314 62.734375 50.533253 61.483414 50.488106 60.077332C 50.442955 58.671249 51.220989 57.367691 52.48 56.739998L 58 54.040001C 58.685329 53.682819 59.447182 53.497501 60.220001 53.5C 60.803333 53.497208 61.382454 53.598808 61.930004 53.800003L 72.07 57.670002M 38.5 74.5L 42.699997 74.5L 49.689999 79.809998C 50.413509 80.64119 51.67136 80.734856 52.510002 80.020004L 63.010002 71.620003C 63.857735 70.903976 63.990059 69.646851 63.310001 68.770004L 57.550003 62.409996M 52 57.040001L 51.25 56.41C 50.498058 55.843319 49.581562 55.537819 48.639999 55.540001C 48.083549 55.542374 47.533039 55.654518 47.02 55.869999L 38.5 59.5M 29.5 77.5L 35.5 77.5C 37.156857 77.5 38.5 76.156853 38.5 74.5L 38.5 59.5C 38.5 57.843143 37.156857 56.5 35.5 56.5L 29.5 56.5M 80.5 77.5L 74.5 77.5C 72.843147 77.5 71.5 76.156853 71.5 74.5L 71.5 59.5C 71.5 57.843143 72.843147 56.5 74.5 56.5L 80.5 56.5M 61 11.5L 20.5 11.5C 15.529437 11.5 11.5 15.529437 11.5 20.5L 11.5 79C 11.5 79.82843 12.171573 80.5 13 80.5L 22 80.5M 20.5 23.5L 44.5 23.5M 20.5 32.5L 44.5 32.5M 20.5 41.5L 31 41.5M 53.5 49L 53.5 19C 53.5 14.857864 56.857864 11.5 61 11.5C 65.139999 11.5 68.5 14.86 68.5 20.5L 53.5 20.5"></path></g></g></g><g id="g-root-tx_boaf_qp1llar98jyb-stroke" data-item-order="0" transform="translate(188, 395.2630615234375)"></g><g id="g-root-tx_execuoco_1cxe2dqr98iz1-stroke" data-item-order="0" transform="translate(8.15789794921875, 196)"></g><g id="g-root-tx_obrigaes_1i3rir98hs8-stroke" data-item-order="0" transform="translate(302, 137.2630615234375)"></g><g id="g-root-tx_aceitaod_18gbm32r98hl6-stroke" data-item-order="0" transform="translate(74.15789794921875, 628)"></g><g id="g-root-tx_honestid_4ikk26r98j64-stroke" data-item-order="0" transform="translate(8, 437.2630615234375)"></g><g id="g-root-tx_bilatera_dcc51qr98jd3-stroke" data-item-order="0" transform="translate(344, 59.2630615234375)"></g><g id="g-root-tx_caracter_zmk13ir97405-stroke" data-item-order="0" transform="translate(188, -0.7369384765625)"></g><g id="g-root-tx_dependnc_1lua0sur98kci-stroke" data-item-order="0" transform="translate(638, 437.2630615234375)"></g><g id="g-root-tx_consensu_hva0lqr98jrb-stroke" data-item-order="0" transform="translate(554, 509.26318359375)"></g><g id="g-root-tx_adeso_1lr5ndar98j61-stroke" data-item-order="0" transform="translate(308.15789794921875, 580)"></g><g id="g-root-tx_acordomt_4kfzbir98i6g-stroke" data-item-order="0" transform="translate(554, 587.26318359375)"></g><g id="g-root-tx_aleatori_1qa3ixar98jk9-stroke" data-item-order="0" transform="translate(638, 395.2630615234375)"></g></g></g><path id="w1hi7moftr213c" d="M65.283 12.757a.35.35 0 0 0 .584.157l5.203-5.141-6.183 3.523.396 1.461zm-2.216-11.7a.35.35 0 0 0-.522.305v3.111l3.276-1.868-2.754-1.548zm3.728 2.105l-4.25 2.421v2.445l6.391-3.644-2.141-1.222zm4.708 3.303a.35.35 0 0 0 0-.609l-1.592-.9-7.365 4.199v1.782a.35.35 0 0 0 .523.305l8.435-4.777z M44.542 2.513c0-.433.355-.783.792-.783s.792.35.792.783-.355.783-.792.783-.792-.35-.792-.783zm59.171 0c0-.433.355-.783.792-.783s.792.35.792.783-.355.783-.792.783-.792-.35-.792-.783zm-85.951 7.636h-1.27v-.487c-.276.201-.864.609-1.881.609-1.202 0-2.274-.794-2.137-2.078.118-1.106 1.153-1.584 1.848-1.727l2.17-.345c0-.539-.29-.956-1.064-1.006s-1.21.305-1.571 1.017l-1.124-.605c1.218-2.631 5.029-1.764 5.029.414v4.207zm-1.27-2.86c.006.396-.062 1.112-.819 1.59-.587.37-1.841.299-1.903-.395-.049-.555.461-.791.906-.898l1.816-.297zm72.662 2.86h-1.27v-.487c-.276.201-.864.609-1.881.609-1.202 0-2.274-.794-2.137-2.078.118-1.106 1.153-1.584 1.848-1.727l2.17-.345c0-.539-.29-.956-1.064-1.006s-1.21.305-1.571 1.017l-1.124-.605c1.218-2.631 5.029-1.764 5.029.414v4.207zm-1.27-2.86c.006.396-.062 1.112-.82 1.59-.587.37-1.841.299-1.903-.395-.049-.555.461-.791.906-.898l1.816-.297zM99.096 10.149H97.85v-8.45h1.246v4.895l2.68-2.559h1.738l-2.633 2.535 2.715 3.578h-1.556l-2.077-2.707-.867.844v1.863zm6.053-6.114h-1.255v6.113h1.255V4.035zm-59.2 0h-1.255v6.113h1.255V4.035zm5.584 6.113V1.697h1.255v2.695c.361-.346 1-.485 1.47-.485 1.452 0 2.477 1.082 2.457 2.448v3.792h-1.27v-3.68c0-.408-.214-1.339-1.315-1.339-.968 0-1.342.756-1.342 1.339v3.681h-1.255zm-4.76-4.894V4.039h.621a.45.45 0 0 0 .45-.45v-.855h1.251v1.305h1.309v1.215h-1.309v3.109c0 .293.105.664.648.664.365 0 .531-.035.736-.07v1.137s-.361.113-.857.113c-1.398 0-1.777-1.051-1.777-1.788V5.254h-1.071zM36.528 4.039h-1.394l2.191 6.106h1.125l1.234-3.918 1.238 3.918h1.129l2.188-6.106h-1.383l-1.359 3.93-1.256-3.93h-1.124l-1.242 3.957-1.348-3.957zM26.212 7.141c-.02 1.566 1.187 3.129 3.223 3.129 1.566 0 2.383-.918 2.734-1.719L31.172 8c-.315.399-.801 1.094-1.738 1.094-1.145 0-1.825-.781-1.891-1.52h4.625c.074-.284.148-.995-.03-1.559-.336-1.064-1.221-2.102-2.839-2.102s-3.088 1.152-3.088 3.227zm1.363-.75h3.348c-.055-.43-.566-1.301-1.623-1.301a1.79 1.79 0 0 0-1.725 1.301zm-8.758.75c.038 1.758 1.277 3.133 3.145 3.133 1.074 0 1.723-.477 1.961-.672v.547h1.242V1.703h-1.258v2.888c-.414-.36-1.062-.68-1.93-.68-1.91 0-3.198 1.473-3.16 3.23zm1.309-.08c0 1.119.723 1.978 1.836 1.978a1.88 1.88 0 0 0 1.94-1.904c0-1.371-1.011-1.99-1.972-1.99s-1.805.798-1.805 1.916zm76.683-.028C96.771 5.275 95.532 3.9 93.664 3.9c-1.074 0-1.723.477-1.961.672v-.547h-1.242v8.22h1.258V9.583c.414.36 1.063.68 1.93.68 1.91 0 3.198-1.473 3.16-3.23zm-1.309.08c0-1.119-.723-1.978-1.836-1.978a1.88 1.88 0 0 0-1.94 1.904c0 1.371 1.011 1.99 1.972 1.99S95.5 8.231 95.5 7.113zM106.441 10.173V4.036h1.254v.382c.361-.346 1-.485 1.47-.485 1.452 0 2.477 1.082 2.457 2.448v3.792h-1.27V6.492c0-.408-.214-1.339-1.315-1.339-.969 0-1.342.756-1.342 1.339v3.681h-1.254zm-30.383-.021V1.824h1.084l4.215 5.777V1.824h1.32v8.328h-1.094l-4.207-5.796v5.796h-1.319zM5.24 10.149H4V2.377h1.014l2.664 3.597 2.654-3.592h1.03v7.766h-1.256V4.762L7.678 8.068 5.24 4.742v5.407z" transform="translate(974.1578979492188, 758)" fill="#80808088" stroke="none"></path></svg>